<mxfile host="app.diagrams.net" modified="2021-07-15T14:21:51.093Z" agent="5.0 (Windows NT 10.0; Win64; x64) AppleWebKit/537.36 (KHTML, like Gecko) Chrome/91.0.4472.124 Safari/537.36" etag="isi2-n_w2kbroEg4i1jr" version="14.8.6" type="github">
  <diagram id="C5RBs43oDa-KdzZeNtuy" name="Page-1">
    <mxGraphModel dx="1306" dy="794" grid="1" gridSize="10" guides="1" tooltips="1" connect="1" arrows="1" fold="1" page="1" pageScale="1" pageWidth="827" pageHeight="1169" math="0" shadow="0">
      <root>
        <mxCell id="WIyWlLk6GJQsqaUBKTNV-0" />
        <mxCell id="WIyWlLk6GJQsqaUBKTNV-1" parent="WIyWlLk6GJQsqaUBKTNV-0" />
        <mxCell id="aAejiJT35-AnjEQwmfNx-25" value="" style="edgeStyle=orthogonalEdgeStyle;rounded=0;orthogonalLoop=1;jettySize=auto;html=1;" edge="1" parent="WIyWlLk6GJQsqaUBKTNV-1" source="aAejiJT35-AnjEQwmfNx-21" target="aAejiJT35-AnjEQwmfNx-24">
          <mxGeometry relative="1" as="geometry" />
        </mxCell>
        <mxCell id="aAejiJT35-AnjEQwmfNx-27" value="" style="edgeStyle=orthogonalEdgeStyle;rounded=0;orthogonalLoop=1;jettySize=auto;html=1;" edge="1" parent="WIyWlLk6GJQsqaUBKTNV-1" source="aAejiJT35-AnjEQwmfNx-21" target="aAejiJT35-AnjEQwmfNx-26">
          <mxGeometry relative="1" as="geometry" />
        </mxCell>
        <mxCell id="aAejiJT35-AnjEQwmfNx-29" value="" style="edgeStyle=orthogonalEdgeStyle;rounded=0;orthogonalLoop=1;jettySize=auto;html=1;" edge="1" parent="WIyWlLk6GJQsqaUBKTNV-1" source="aAejiJT35-AnjEQwmfNx-21" target="aAejiJT35-AnjEQwmfNx-28">
          <mxGeometry relative="1" as="geometry" />
        </mxCell>
        <mxCell id="aAejiJT35-AnjEQwmfNx-21" value="Attendance" style="ellipse;whiteSpace=wrap;html=1;" vertex="1" parent="WIyWlLk6GJQsqaUBKTNV-1">
          <mxGeometry x="360" y="40" width="120" height="80" as="geometry" />
        </mxCell>
        <mxCell id="aAejiJT35-AnjEQwmfNx-47" value="" style="edgeStyle=orthogonalEdgeStyle;rounded=0;sketch=0;orthogonalLoop=1;jettySize=auto;html=1;" edge="1" parent="WIyWlLk6GJQsqaUBKTNV-1" source="aAejiJT35-AnjEQwmfNx-24" target="aAejiJT35-AnjEQwmfNx-46">
          <mxGeometry relative="1" as="geometry" />
        </mxCell>
        <mxCell id="aAejiJT35-AnjEQwmfNx-24" value="Regular" style="whiteSpace=wrap;html=1;" vertex="1" parent="WIyWlLk6GJQsqaUBKTNV-1">
          <mxGeometry x="90" y="160" width="120" height="60" as="geometry" />
        </mxCell>
        <mxCell id="aAejiJT35-AnjEQwmfNx-31" value="" style="edgeStyle=orthogonalEdgeStyle;rounded=0;orthogonalLoop=1;jettySize=auto;html=1;" edge="1" parent="WIyWlLk6GJQsqaUBKTNV-1" source="aAejiJT35-AnjEQwmfNx-26" target="aAejiJT35-AnjEQwmfNx-30">
          <mxGeometry relative="1" as="geometry" />
        </mxCell>
        <mxCell id="aAejiJT35-AnjEQwmfNx-65" value="" style="edgeStyle=orthogonalEdgeStyle;rounded=0;sketch=0;orthogonalLoop=1;jettySize=auto;html=1;entryX=0.5;entryY=0;entryDx=0;entryDy=0;" edge="1" parent="WIyWlLk6GJQsqaUBKTNV-1" source="aAejiJT35-AnjEQwmfNx-26" target="aAejiJT35-AnjEQwmfNx-64">
          <mxGeometry relative="1" as="geometry" />
        </mxCell>
        <mxCell id="aAejiJT35-AnjEQwmfNx-26" value="WP Day" style="whiteSpace=wrap;html=1;" vertex="1" parent="WIyWlLk6GJQsqaUBKTNV-1">
          <mxGeometry x="630" y="160" width="120" height="60" as="geometry" />
        </mxCell>
        <mxCell id="aAejiJT35-AnjEQwmfNx-49" value="" style="edgeStyle=orthogonalEdgeStyle;rounded=0;sketch=0;orthogonalLoop=1;jettySize=auto;html=1;" edge="1" parent="WIyWlLk6GJQsqaUBKTNV-1" source="aAejiJT35-AnjEQwmfNx-28" target="aAejiJT35-AnjEQwmfNx-46">
          <mxGeometry relative="1" as="geometry">
            <mxPoint x="280" y="220" as="targetPoint" />
          </mxGeometry>
        </mxCell>
        <mxCell id="aAejiJT35-AnjEQwmfNx-61" value="" style="edgeStyle=orthogonalEdgeStyle;rounded=0;sketch=0;orthogonalLoop=1;jettySize=auto;html=1;" edge="1" parent="WIyWlLk6GJQsqaUBKTNV-1" source="aAejiJT35-AnjEQwmfNx-28" target="aAejiJT35-AnjEQwmfNx-60">
          <mxGeometry relative="1" as="geometry" />
        </mxCell>
        <mxCell id="aAejiJT35-AnjEQwmfNx-28" value="Night Shift" style="whiteSpace=wrap;html=1;" vertex="1" parent="WIyWlLk6GJQsqaUBKTNV-1">
          <mxGeometry x="360" y="160" width="120" height="60" as="geometry" />
        </mxCell>
        <mxCell id="aAejiJT35-AnjEQwmfNx-30" value="Has Hour ?" style="rhombus;whiteSpace=wrap;html=1;" vertex="1" parent="WIyWlLk6GJQsqaUBKTNV-1">
          <mxGeometry x="650" y="290" width="80" height="80" as="geometry" />
        </mxCell>
        <mxCell id="aAejiJT35-AnjEQwmfNx-39" value="OT 140" style="whiteSpace=wrap;html=1;" vertex="1" parent="WIyWlLk6GJQsqaUBKTNV-1">
          <mxGeometry x="670" y="390" width="120" height="60" as="geometry" />
        </mxCell>
        <mxCell id="aAejiJT35-AnjEQwmfNx-41" value="Yes" style="edgeStyle=orthogonalEdgeStyle;rounded=0;html=1;jettySize=auto;orthogonalLoop=1;fontSize=11;endArrow=block;endFill=0;endSize=8;strokeWidth=1;shadow=0;labelBackgroundColor=none;exitX=1;exitY=0.5;exitDx=0;exitDy=0;" edge="1" parent="WIyWlLk6GJQsqaUBKTNV-1" source="aAejiJT35-AnjEQwmfNx-30" target="aAejiJT35-AnjEQwmfNx-39">
          <mxGeometry y="10" relative="1" as="geometry">
            <mxPoint as="offset" />
            <mxPoint x="360" y="330" as="sourcePoint" />
            <mxPoint x="460" y="330" as="targetPoint" />
            <Array as="points">
              <mxPoint x="730" y="400" />
              <mxPoint x="730" y="400" />
            </Array>
          </mxGeometry>
        </mxCell>
        <mxCell id="aAejiJT35-AnjEQwmfNx-46" value="R/CT?" style="rhombus;whiteSpace=wrap;html=1;" vertex="1" parent="WIyWlLk6GJQsqaUBKTNV-1">
          <mxGeometry x="270" y="460" width="80" height="80" as="geometry" />
        </mxCell>
        <mxCell id="aAejiJT35-AnjEQwmfNx-52" value="Yes&lt;br&gt;" style="endArrow=classic;html=1;exitX=1;exitY=0.5;exitDx=0;exitDy=0;entryX=0.44;entryY=-0.033;entryDx=0;entryDy=0;entryPerimeter=0;" edge="1" parent="WIyWlLk6GJQsqaUBKTNV-1" source="aAejiJT35-AnjEQwmfNx-46" target="aAejiJT35-AnjEQwmfNx-53">
          <mxGeometry x="-0.2" y="10" width="50" height="50" relative="1" as="geometry">
            <mxPoint x="340" y="310" as="sourcePoint" />
            <mxPoint x="370" y="270" as="targetPoint" />
            <Array as="points" />
            <mxPoint as="offset" />
          </mxGeometry>
        </mxCell>
        <mxCell id="aAejiJT35-AnjEQwmfNx-53" value="Deduct From NT&lt;br&gt;" style="strokeWidth=2;html=1;shape=mxgraph.flowchart.terminator;whiteSpace=wrap;" vertex="1" parent="WIyWlLk6GJQsqaUBKTNV-1">
          <mxGeometry x="440" y="620" width="100" height="60" as="geometry" />
        </mxCell>
        <mxCell id="aAejiJT35-AnjEQwmfNx-54" value="C/Holiday/M/PP ?&amp;nbsp;&lt;br&gt;" style="rhombus;whiteSpace=wrap;html=1;" vertex="1" parent="WIyWlLk6GJQsqaUBKTNV-1">
          <mxGeometry x="50" y="560" width="130" height="80" as="geometry" />
        </mxCell>
        <mxCell id="aAejiJT35-AnjEQwmfNx-55" value="NO&lt;br&gt;" style="endArrow=classic;html=1;entryX=0.5;entryY=0;entryDx=0;entryDy=0;exitX=0;exitY=0.5;exitDx=0;exitDy=0;" edge="1" parent="WIyWlLk6GJQsqaUBKTNV-1" source="aAejiJT35-AnjEQwmfNx-46" target="aAejiJT35-AnjEQwmfNx-54">
          <mxGeometry x="0.1028" y="-11" width="50" height="50" relative="1" as="geometry">
            <mxPoint x="220" y="250" as="sourcePoint" />
            <mxPoint x="210" y="320" as="targetPoint" />
            <mxPoint as="offset" />
          </mxGeometry>
        </mxCell>
        <mxCell id="aAejiJT35-AnjEQwmfNx-56" value="Add To NT&lt;br&gt;" style="strokeWidth=2;html=1;shape=mxgraph.flowchart.terminator;whiteSpace=wrap;" vertex="1" parent="WIyWlLk6GJQsqaUBKTNV-1">
          <mxGeometry x="220" y="640" width="100" height="60" as="geometry" />
        </mxCell>
        <mxCell id="aAejiJT35-AnjEQwmfNx-57" value="" style="endArrow=classic;html=1;entryX=0.6;entryY=-0.017;entryDx=0;entryDy=0;entryPerimeter=0;exitX=1;exitY=0.5;exitDx=0;exitDy=0;" edge="1" parent="WIyWlLk6GJQsqaUBKTNV-1" source="aAejiJT35-AnjEQwmfNx-54" target="aAejiJT35-AnjEQwmfNx-56">
          <mxGeometry width="50" height="50" relative="1" as="geometry">
            <mxPoint x="330" y="380" as="sourcePoint" />
            <mxPoint x="380" y="330" as="targetPoint" />
            <Array as="points">
              <mxPoint x="210" y="610" />
            </Array>
          </mxGeometry>
        </mxCell>
        <mxCell id="aAejiJT35-AnjEQwmfNx-58" value="Yes" style="edgeLabel;html=1;align=center;verticalAlign=middle;resizable=0;points=[];" vertex="1" connectable="0" parent="aAejiJT35-AnjEQwmfNx-57">
          <mxGeometry x="-0.0297" y="1" relative="1" as="geometry">
            <mxPoint x="10" y="-12" as="offset" />
          </mxGeometry>
        </mxCell>
        <mxCell id="aAejiJT35-AnjEQwmfNx-63" value="Yes&lt;br&gt;" style="edgeStyle=orthogonalEdgeStyle;rounded=0;sketch=0;orthogonalLoop=1;jettySize=auto;html=1;" edge="1" parent="WIyWlLk6GJQsqaUBKTNV-1" source="aAejiJT35-AnjEQwmfNx-60" target="aAejiJT35-AnjEQwmfNx-62">
          <mxGeometry y="10" relative="1" as="geometry">
            <mxPoint as="offset" />
          </mxGeometry>
        </mxCell>
        <mxCell id="aAejiJT35-AnjEQwmfNx-60" value="Hour &amp;gt; 8 ?" style="rhombus;whiteSpace=wrap;html=1;" vertex="1" parent="WIyWlLk6GJQsqaUBKTNV-1">
          <mxGeometry x="380" y="250" width="80" height="80" as="geometry" />
        </mxCell>
        <mxCell id="aAejiJT35-AnjEQwmfNx-62" value="OT 150" style="whiteSpace=wrap;html=1;" vertex="1" parent="WIyWlLk6GJQsqaUBKTNV-1">
          <mxGeometry x="520" y="260" width="120" height="60" as="geometry" />
        </mxCell>
        <mxCell id="aAejiJT35-AnjEQwmfNx-67" value="Yes&lt;br&gt;" style="edgeStyle=orthogonalEdgeStyle;rounded=0;sketch=0;orthogonalLoop=1;jettySize=auto;html=1;" edge="1" parent="WIyWlLk6GJQsqaUBKTNV-1" source="aAejiJT35-AnjEQwmfNx-64" target="aAejiJT35-AnjEQwmfNx-66">
          <mxGeometry relative="1" as="geometry" />
        </mxCell>
        <mxCell id="aAejiJT35-AnjEQwmfNx-70" value="" style="edgeStyle=orthogonalEdgeStyle;rounded=0;sketch=0;orthogonalLoop=1;jettySize=auto;html=1;entryX=0.5;entryY=0;entryDx=0;entryDy=0;" edge="1" parent="WIyWlLk6GJQsqaUBKTNV-1" source="aAejiJT35-AnjEQwmfNx-64" target="aAejiJT35-AnjEQwmfNx-69">
          <mxGeometry relative="1" as="geometry" />
        </mxCell>
        <mxCell id="aAejiJT35-AnjEQwmfNx-71" value="NO&lt;br&gt;" style="edgeLabel;html=1;align=center;verticalAlign=middle;resizable=0;points=[];" vertex="1" connectable="0" parent="aAejiJT35-AnjEQwmfNx-70">
          <mxGeometry x="-0.075" relative="1" as="geometry">
            <mxPoint y="-10" as="offset" />
          </mxGeometry>
        </mxCell>
        <mxCell id="aAejiJT35-AnjEQwmfNx-64" value="Before WP DAY F ?&amp;nbsp;" style="rhombus;whiteSpace=wrap;html=1;" vertex="1" parent="WIyWlLk6GJQsqaUBKTNV-1">
          <mxGeometry x="870" y="220" width="80" height="80" as="geometry" />
        </mxCell>
        <mxCell id="aAejiJT35-AnjEQwmfNx-66" value="Count Day before F" style="whiteSpace=wrap;html=1;" vertex="1" parent="WIyWlLk6GJQsqaUBKTNV-1">
          <mxGeometry x="990" y="160" width="120" height="60" as="geometry" />
        </mxCell>
        <mxCell id="aAejiJT35-AnjEQwmfNx-75" value="" style="edgeStyle=orthogonalEdgeStyle;rounded=0;sketch=0;orthogonalLoop=1;jettySize=auto;html=1;" edge="1" parent="WIyWlLk6GJQsqaUBKTNV-1" source="aAejiJT35-AnjEQwmfNx-69">
          <mxGeometry relative="1" as="geometry">
            <mxPoint x="850" y="460" as="targetPoint" />
          </mxGeometry>
        </mxCell>
        <mxCell id="aAejiJT35-AnjEQwmfNx-77" value="No&lt;br&gt;" style="edgeLabel;html=1;align=center;verticalAlign=middle;resizable=0;points=[];" vertex="1" connectable="0" parent="aAejiJT35-AnjEQwmfNx-75">
          <mxGeometry x="-0.0118" y="-2" relative="1" as="geometry">
            <mxPoint as="offset" />
          </mxGeometry>
        </mxCell>
        <mxCell id="aAejiJT35-AnjEQwmfNx-69" value="Has Hour" style="rhombus;whiteSpace=wrap;html=1;" vertex="1" parent="WIyWlLk6GJQsqaUBKTNV-1">
          <mxGeometry x="870" y="340" width="150" height="110" as="geometry" />
        </mxCell>
        <mxCell id="aAejiJT35-AnjEQwmfNx-72" value="Add 5H NT" style="strokeWidth=2;html=1;shape=mxgraph.flowchart.terminator;whiteSpace=wrap;" vertex="1" parent="WIyWlLk6GJQsqaUBKTNV-1">
          <mxGeometry x="990" y="470" width="100" height="60" as="geometry" />
        </mxCell>
        <mxCell id="aAejiJT35-AnjEQwmfNx-73" value="Yes&lt;br&gt;" style="endArrow=classic;html=1;exitX=1;exitY=0.5;exitDx=0;exitDy=0;entryX=0.5;entryY=0;entryDx=0;entryDy=0;entryPerimeter=0;" edge="1" parent="WIyWlLk6GJQsqaUBKTNV-1" source="aAejiJT35-AnjEQwmfNx-69" target="aAejiJT35-AnjEQwmfNx-72">
          <mxGeometry width="50" height="50" relative="1" as="geometry">
            <mxPoint x="1020" y="430" as="sourcePoint" />
            <mxPoint x="1070" y="380" as="targetPoint" />
          </mxGeometry>
        </mxCell>
        <mxCell id="aAejiJT35-AnjEQwmfNx-76" value="&lt;span&gt;R,M,PP, PNP,&lt;/span&gt;&lt;br&gt;&lt;span&gt;AJ, ANJ&lt;/span&gt;&lt;br&gt;&lt;span&gt;?&lt;/span&gt;" style="rhombus;whiteSpace=wrap;html=1;" vertex="1" parent="WIyWlLk6GJQsqaUBKTNV-1">
          <mxGeometry x="780" y="460" width="140" height="80" as="geometry" />
        </mxCell>
        <mxCell id="aAejiJT35-AnjEQwmfNx-78" value="Deduct 5h from NT" style="strokeWidth=2;html=1;shape=mxgraph.flowchart.terminator;whiteSpace=wrap;" vertex="1" parent="WIyWlLk6GJQsqaUBKTNV-1">
          <mxGeometry x="840" y="610" width="100" height="60" as="geometry" />
        </mxCell>
        <mxCell id="aAejiJT35-AnjEQwmfNx-80" value="" style="endArrow=classic;html=1;entryX=0;entryY=0.5;entryDx=0;entryDy=0;entryPerimeter=0;" edge="1" parent="WIyWlLk6GJQsqaUBKTNV-1" source="aAejiJT35-AnjEQwmfNx-76" target="aAejiJT35-AnjEQwmfNx-72">
          <mxGeometry width="50" height="50" relative="1" as="geometry">
            <mxPoint x="890" y="550" as="sourcePoint" />
            <mxPoint x="960.7106781186548" y="500" as="targetPoint" />
          </mxGeometry>
        </mxCell>
        <mxCell id="aAejiJT35-AnjEQwmfNx-81" value="No&lt;br&gt;" style="edgeLabel;html=1;align=center;verticalAlign=middle;resizable=0;points=[];" vertex="1" connectable="0" parent="aAejiJT35-AnjEQwmfNx-80">
          <mxGeometry x="-0.38" y="-1" relative="1" as="geometry">
            <mxPoint as="offset" />
          </mxGeometry>
        </mxCell>
        <mxCell id="aAejiJT35-AnjEQwmfNx-82" value="Yes" style="endArrow=classic;html=1;exitX=0.5;exitY=1;exitDx=0;exitDy=0;entryX=0.41;entryY=0.033;entryDx=0;entryDy=0;entryPerimeter=0;" edge="1" parent="WIyWlLk6GJQsqaUBKTNV-1" source="aAejiJT35-AnjEQwmfNx-76" target="aAejiJT35-AnjEQwmfNx-78">
          <mxGeometry width="50" height="50" relative="1" as="geometry">
            <mxPoint x="1020" y="640" as="sourcePoint" />
            <mxPoint x="1070" y="590" as="targetPoint" />
          </mxGeometry>
        </mxCell>
        <mxCell id="aAejiJT35-AnjEQwmfNx-83" value="&lt;span&gt;Add To NT&lt;/span&gt;" style="strokeWidth=2;html=1;shape=mxgraph.flowchart.terminator;whiteSpace=wrap;" vertex="1" parent="WIyWlLk6GJQsqaUBKTNV-1">
          <mxGeometry x="65" y="320" width="100" height="60" as="geometry" />
        </mxCell>
        <mxCell id="aAejiJT35-AnjEQwmfNx-84" value="No" style="endArrow=classic;html=1;entryX=0.35;entryY=1.05;entryDx=0;entryDy=0;entryPerimeter=0;exitX=0;exitY=0.5;exitDx=0;exitDy=0;" edge="1" parent="WIyWlLk6GJQsqaUBKTNV-1" source="aAejiJT35-AnjEQwmfNx-54" target="aAejiJT35-AnjEQwmfNx-83">
          <mxGeometry width="50" height="50" relative="1" as="geometry">
            <mxPoint x="40" y="610" as="sourcePoint" />
            <mxPoint x="120" y="450" as="targetPoint" />
          </mxGeometry>
        </mxCell>
        <mxCell id="aAejiJT35-AnjEQwmfNx-85" value="" style="endArrow=classic;html=1;exitX=0.5;exitY=1;exitDx=0;exitDy=0;" edge="1" parent="WIyWlLk6GJQsqaUBKTNV-1" source="aAejiJT35-AnjEQwmfNx-62">
          <mxGeometry width="50" height="50" relative="1" as="geometry">
            <mxPoint x="420" y="400" as="sourcePoint" />
            <mxPoint x="170" y="350" as="targetPoint" />
            <Array as="points">
              <mxPoint x="460" y="380" />
            </Array>
          </mxGeometry>
        </mxCell>
        <mxCell id="aAejiJT35-AnjEQwmfNx-86" value="8h NT" style="edgeLabel;html=1;align=center;verticalAlign=middle;resizable=0;points=[];" vertex="1" connectable="0" parent="aAejiJT35-AnjEQwmfNx-85">
          <mxGeometry x="-0.2089" relative="1" as="geometry">
            <mxPoint y="-1" as="offset" />
          </mxGeometry>
        </mxCell>
        <mxCell id="aAejiJT35-AnjEQwmfNx-87" value="Anticipation" style="rounded=0;whiteSpace=wrap;html=1;" vertex="1" parent="WIyWlLk6GJQsqaUBKTNV-1">
          <mxGeometry x="1220" y="130" width="120" height="60" as="geometry" />
        </mxCell>
        <mxCell id="aAejiJT35-AnjEQwmfNx-88" value="" style="endArrow=classic;html=1;" edge="1" parent="WIyWlLk6GJQsqaUBKTNV-1">
          <mxGeometry width="50" height="50" relative="1" as="geometry">
            <mxPoint x="1000" y="400" as="sourcePoint" />
            <mxPoint x="1050" y="350" as="targetPoint" />
          </mxGeometry>
        </mxCell>
        <mxCell id="aAejiJT35-AnjEQwmfNx-89" value="" style="endArrow=classic;html=1;" edge="1" parent="WIyWlLk6GJQsqaUBKTNV-1" source="aAejiJT35-AnjEQwmfNx-21">
          <mxGeometry width="50" height="50" relative="1" as="geometry">
            <mxPoint x="690" y="80" as="sourcePoint" />
            <mxPoint x="1280" y="130" as="targetPoint" />
            <Array as="points">
              <mxPoint x="1280" y="78" />
            </Array>
          </mxGeometry>
        </mxCell>
      </root>
    </mxGraphModel>
  </diagram>
</mxfile>
